<?xml version="1.0" encoding="utf-8"?>
<!-- Generator: Adobe Illustrator 22.0.1, SVG Export Plug-In . SVG Version: 6.00 Build 0)  -->
<svg version="1.1" id="Camada_1" xmlns="http://www.w3.org/2000/svg" xmlns:xlink="http://www.w3.org/1999/xlink" x="0px" y="0px"
	 viewBox="0 0 465 493" style="enable-background:new 0 0 465 493;" xml:space="preserve">
<style type="text/css">
	.st0{fill:#FFFFFF;}
	.st1{fill:#CFEBF7;stroke:#4776C7;stroke-width:6.9636;stroke-linejoin:round;stroke-miterlimit:10;}
	.st2{fill:#4776C7;}
	.st3{fill:#F4FBFF;}
	.st4{fill:#FFFFFF;stroke:#4776C7;stroke-width:4.6511;stroke-miterlimit:10;}
	.st5{fill:#4776C7;stroke:#4776C7;stroke-width:4.7017;stroke-linecap:round;stroke-linejoin:round;stroke-miterlimit:10;}
	.st6{fill:#FFFFFF;stroke:#4776C7;stroke-width:4.6511;stroke-linecap:round;stroke-linejoin:round;stroke-miterlimit:10;}
	.st7{fill:url(#SVGID_1_);stroke:#4776C7;stroke-width:4.6511;stroke-linecap:round;stroke-linejoin:round;stroke-miterlimit:10;}
	.st8{opacity:0.5;fill:none;stroke:#F4FBFF;stroke-width:4.7017;stroke-miterlimit:10;}
	.st9{opacity:0.5;fill:none;stroke:#F4FBFF;stroke-width:4.6511;stroke-miterlimit:10;}
	.st10{fill:none;stroke:#4776C7;stroke-width:4.7017;stroke-linecap:round;stroke-linejoin:round;stroke-miterlimit:10;}
	.st11{fill:none;stroke:#4776C7;stroke-width:4.7017;stroke-miterlimit:10;}
	.st12{fill:#88BBFC;stroke:#4776C7;stroke-width:4.7017;stroke-miterlimit:10;}
	.st13{fill:none;stroke:#4776C7;stroke-width:4.6511;stroke-miterlimit:10;}
	.st14{fill:url(#SVGID_2_);stroke:#4776C7;stroke-width:4.6511;stroke-linecap:round;stroke-linejoin:round;stroke-miterlimit:10;}
	.st15{fill:#88BBFC;stroke:#4776C7;stroke-width:4.6511;stroke-miterlimit:10;}
	.st16{fill:#FFFFFF;stroke:#4776C7;stroke-width:4.6511;stroke-linejoin:round;stroke-miterlimit:10;}
	.st17{fill:none;stroke:#4776C7;stroke-width:4.6511;stroke-linecap:round;stroke-linejoin:round;stroke-miterlimit:10;}
	.st18{fill:url(#);stroke:#4776C7;stroke-width:4.6511;stroke-linecap:round;stroke-linejoin:round;stroke-miterlimit:10;}
	.st19{fill:#4370FA;stroke:#4776C7;stroke-width:4.7709;stroke-linecap:round;stroke-linejoin:round;stroke-miterlimit:10;}
	.st20{fill:#FFFFFF;stroke:#4776C7;stroke-width:4.4784;stroke-linecap:round;stroke-linejoin:round;stroke-miterlimit:10;}
	.st21{fill:#86EBC0;stroke:#4776C7;stroke-width:4.4784;stroke-linecap:round;stroke-linejoin:round;stroke-miterlimit:10;}
	.st22{fill:none;stroke:#4776C7;stroke-width:4.3095;stroke-linecap:round;stroke-miterlimit:10;}
	.st23{fill:none;stroke:#4776C7;stroke-width:4.2808;stroke-miterlimit:10;}
	.st24{fill:#CFEBF7;stroke:#4776C7;stroke-width:4.7017;stroke-linecap:round;stroke-linejoin:round;stroke-miterlimit:10;}
	.st25{fill:#CFEBF7;stroke:#4776C7;stroke-width:4.6511;stroke-linecap:round;stroke-linejoin:round;stroke-miterlimit:10;}
	.st26{fill:#B4DDFD;stroke:#4776C7;stroke-width:4.6511;stroke-miterlimit:10;}
	.st27{fill:url(#SVGID_3_);stroke:#4776C7;stroke-width:4.6511;stroke-linecap:round;stroke-linejoin:round;stroke-miterlimit:10;}
	.st28{fill:url(#SVGID_4_);stroke:#4776C7;stroke-width:4.7017;stroke-linecap:round;stroke-linejoin:round;stroke-miterlimit:10;}
	.st29{fill:url(#SVGID_5_);stroke:#4776C7;stroke-width:4.7017;stroke-linecap:round;stroke-linejoin:round;stroke-miterlimit:10;}
	.st30{fill:#F4FBFF;stroke:#4776C7;stroke-width:4.6511;stroke-linecap:round;stroke-linejoin:round;stroke-miterlimit:10;}
	.st31{fill:url(#SVGID_6_);stroke:#4776C7;stroke-width:4.6511;stroke-linecap:round;stroke-linejoin:round;stroke-miterlimit:10;}
	.st32{fill:url(#SVGID_7_);stroke:#4776C7;stroke-width:4.6511;stroke-linecap:round;stroke-linejoin:round;stroke-miterlimit:10;}
	.st33{fill:#B4DDFD;stroke:#4776C7;stroke-width:4.6511;stroke-linecap:round;stroke-linejoin:round;stroke-miterlimit:10;}
	.st34{fill:#B4DDFD;stroke:#4776C7;stroke-width:4.6511;stroke-linejoin:round;stroke-miterlimit:10;}
	.st35{fill:none;stroke:#4776C7;stroke-width:4.0017;stroke-linecap:round;stroke-miterlimit:10;}
	.st36{fill:none;stroke:#4776C7;stroke-width:3.9751;stroke-miterlimit:10;}
	.st37{fill:#86EBC0;stroke:#4776C7;stroke-width:7.3697;stroke-linecap:round;stroke-linejoin:round;stroke-miterlimit:10;}
	.st38{fill:#FFFFFF;stroke:#4776C7;stroke-width:7.3697;stroke-linecap:round;stroke-linejoin:round;stroke-miterlimit:10;}
	.st39{fill:none;stroke:#4776C7;stroke-width:6.8007;stroke-linecap:round;stroke-miterlimit:10;}
	.st40{fill:none;stroke:#4776C7;stroke-width:6.7555;stroke-miterlimit:10;}
	.st41{fill:#CFEBF7;stroke:#4776C7;stroke-width:6.9636;stroke-linecap:round;stroke-linejoin:round;stroke-miterlimit:10;}
	.st42{fill:#CFEBF7;stroke:#4776C7;stroke-width:7.3697;stroke-linecap:round;stroke-linejoin:round;stroke-miterlimit:10;}
	.st43{fill:#CFEBF7;stroke:#4776C7;stroke-width:7.3697;stroke-miterlimit:10;}
	.st44{fill:#FFFFFF;stroke:#4776C7;stroke-width:10.8322;stroke-linecap:round;stroke-linejoin:round;stroke-miterlimit:10;}
	.st45{fill:#4370FA;stroke:#4776C7;stroke-width:7.3697;stroke-linecap:round;stroke-linejoin:round;stroke-miterlimit:10;}
	.st46{fill:#F4FBFF;stroke:#4776C7;stroke-width:7.3697;stroke-linecap:round;stroke-linejoin:round;stroke-miterlimit:10;}
	.st47{fill:url(#SVGID_8_);stroke:#4776C7;stroke-width:7.3697;stroke-linecap:round;stroke-linejoin:round;stroke-miterlimit:10;}
	.st48{opacity:0.5;fill:none;stroke:#F4FBFF;stroke-width:6.9636;stroke-miterlimit:10;}
	.st49{opacity:0.5;fill:none;stroke:#F4FBFF;stroke-width:7.3697;stroke-miterlimit:10;}
	.st50{fill:none;stroke:#4776C7;stroke-width:6.9636;stroke-linecap:round;stroke-linejoin:round;stroke-miterlimit:10;}
	.st51{fill:none;stroke:#4776C7;stroke-width:6.9636;stroke-miterlimit:10;}
	.st52{fill:#88BBFC;stroke:#4776C7;stroke-width:6.9636;stroke-miterlimit:10;}
	.st53{fill:none;stroke:#4776C7;stroke-width:7.3697;stroke-miterlimit:10;}
	.st54{fill:url(#SVGID_9_);stroke:#4776C7;stroke-width:7.3697;stroke-linecap:round;stroke-linejoin:round;stroke-miterlimit:10;}
	.st55{fill:#88BBFC;stroke:#4776C7;stroke-width:7.3697;stroke-miterlimit:10;}
	.st56{fill:url(#SVGID_10_);stroke:#4776C7;stroke-width:7.654;stroke-linecap:round;stroke-linejoin:round;stroke-miterlimit:10;}
	.st57{fill:url(#SVGID_11_);stroke:#4776C7;stroke-width:7.7373;stroke-linecap:round;stroke-linejoin:round;stroke-miterlimit:10;}
	.st58{fill:url(#SVGID_12_);stroke:#4776C7;stroke-width:7.7373;stroke-linecap:round;stroke-linejoin:round;stroke-miterlimit:10;}
	.st59{fill:#FFFFFF;stroke:#4776C7;stroke-width:6.9636;stroke-linejoin:round;stroke-miterlimit:10;}
	.st60{fill:url(#SVGID_13_);stroke:#4776C7;stroke-width:7.3697;stroke-linecap:round;stroke-linejoin:round;stroke-miterlimit:10;}
	.st61{fill:url(#SVGID_14_);stroke:#4776C7;stroke-width:7.3697;stroke-linecap:round;stroke-linejoin:round;stroke-miterlimit:10;}
	.st62{fill:url(#SVGID_15_);stroke:#4776C7;stroke-width:7.654;stroke-linecap:round;stroke-linejoin:round;stroke-miterlimit:10;}
	.st63{fill:url(#SVGID_16_);stroke:#4776C7;stroke-width:7.7373;stroke-linecap:round;stroke-linejoin:round;stroke-miterlimit:10;}
	.st64{fill:url(#SVGID_17_);stroke:#4776C7;stroke-width:7.7373;stroke-linecap:round;stroke-linejoin:round;stroke-miterlimit:10;}
	.st65{fill:url(#SVGID_18_);stroke:#4776C7;stroke-width:7.3697;stroke-linecap:round;stroke-linejoin:round;stroke-miterlimit:10;}
	.st66{fill:url(#SVGID_19_);stroke:#4776C7;stroke-width:7.3697;stroke-linecap:round;stroke-linejoin:round;stroke-miterlimit:10;}
	.st67{fill:url(#SVGID_20_);stroke:#4776C7;stroke-width:7.654;stroke-linecap:round;stroke-linejoin:round;stroke-miterlimit:10;}
	.st68{fill:url(#SVGID_21_);stroke:#4776C7;stroke-width:7.7373;stroke-linecap:round;stroke-linejoin:round;stroke-miterlimit:10;}
	.st69{fill:url(#SVGID_22_);stroke:#4776C7;stroke-width:7.7373;stroke-linecap:round;stroke-linejoin:round;stroke-miterlimit:10;}
	.st70{fill:url(#SVGID_23_);stroke:#4776C7;stroke-width:7.3697;stroke-linecap:round;stroke-linejoin:round;stroke-miterlimit:10;}
	.st71{fill:url(#SVGID_24_);stroke:#4776C7;stroke-width:7.3697;stroke-linecap:round;stroke-linejoin:round;stroke-miterlimit:10;}
	.st72{fill:url(#SVGID_25_);stroke:#4776C7;stroke-width:7.654;stroke-linecap:round;stroke-linejoin:round;stroke-miterlimit:10;}
	.st73{fill:url(#SVGID_26_);stroke:#4776C7;stroke-width:7.7373;stroke-linecap:round;stroke-linejoin:round;stroke-miterlimit:10;}
	.st74{fill:url(#SVGID_27_);stroke:#4776C7;stroke-width:7.7373;stroke-linecap:round;stroke-linejoin:round;stroke-miterlimit:10;}
	.st75{fill:url(#SVGID_28_);stroke:#4776C7;stroke-width:7.3697;stroke-linecap:round;stroke-linejoin:round;stroke-miterlimit:10;}
	.st76{fill:url(#SVGID_29_);stroke:#4776C7;stroke-width:7.3697;stroke-linecap:round;stroke-linejoin:round;stroke-miterlimit:10;}
	.st77{fill:url(#SVGID_30_);stroke:#4776C7;stroke-width:7.654;stroke-linecap:round;stroke-linejoin:round;stroke-miterlimit:10;}
	.st78{fill:url(#SVGID_31_);stroke:#4776C7;stroke-width:7.7373;stroke-linecap:round;stroke-linejoin:round;stroke-miterlimit:10;}
	.st79{fill:url(#SVGID_32_);stroke:#4776C7;stroke-width:7.7373;stroke-linecap:round;stroke-linejoin:round;stroke-miterlimit:10;}
	.st80{fill:none;stroke:#4776C7;stroke-width:4.1326;stroke-linecap:round;stroke-miterlimit:10;}
	.st81{fill:none;stroke:#4776C7;stroke-width:4.1052;stroke-miterlimit:10;}
	.st82{fill:#88BBFC;stroke:#4776C7;stroke-width:4.2316;stroke-linejoin:round;stroke-miterlimit:10;}
	.st83{fill:#CFEBF7;stroke:#4776C7;stroke-width:4.2316;stroke-linecap:round;stroke-linejoin:round;stroke-miterlimit:10;}
	.st84{fill:#CFEBF7;stroke:#4776C7;stroke-width:4.4784;stroke-linecap:round;stroke-linejoin:round;stroke-miterlimit:10;}
	.st85{fill:#88BBFC;stroke:#4776C7;stroke-width:4.4784;stroke-miterlimit:10;}
	.st86{fill:#FFFFFF;stroke:#4776C7;stroke-width:7.2274;stroke-linecap:round;stroke-linejoin:round;stroke-miterlimit:10;}
	.st87{fill:#4370FA;stroke:#4776C7;stroke-width:4.4784;stroke-linecap:round;stroke-linejoin:round;stroke-miterlimit:10;}
	.st88{fill:#F4FBFF;stroke:#4776C7;stroke-width:4.4784;stroke-linecap:round;stroke-linejoin:round;stroke-miterlimit:10;}
	.st89{fill:url(#SVGID_33_);stroke:#4776C7;stroke-width:4.4784;stroke-linecap:round;stroke-linejoin:round;stroke-miterlimit:10;}
	.st90{fill:#88BBFC;stroke:#4776C7;stroke-width:4.4784;stroke-linecap:round;stroke-linejoin:round;stroke-miterlimit:10;}
	.st91{opacity:0.5;fill:none;stroke:#F4FBFF;stroke-width:4.2316;stroke-miterlimit:10;}
	.st92{opacity:0.5;fill:none;stroke:#F4FBFF;stroke-width:4.4784;stroke-miterlimit:10;}
	.st93{fill:none;stroke:#4776C7;stroke-width:4.2316;stroke-linecap:round;stroke-linejoin:round;stroke-miterlimit:10;}
	.st94{fill:none;stroke:#4776C7;stroke-width:4.2316;stroke-miterlimit:10;}
	.st95{fill:#88BBFC;stroke:#4776C7;stroke-width:4.2316;stroke-miterlimit:10;}
	.st96{fill:none;stroke:#4776C7;stroke-width:4.4784;stroke-miterlimit:10;}
	.st97{fill:url(#SVGID_34_);stroke:#4776C7;stroke-width:4.4784;stroke-linecap:round;stroke-linejoin:round;stroke-miterlimit:10;}
	.st98{enable-background:new    ;}
	.st99{fill:#B3B3B3;}
	.st100{clip-path:url(#SVGID_36_);enable-background:new    ;}
	.st101{fill:#B8B8B8;}
	.st102{fill:#BDBDBD;}
	.st103{fill:#C2C2C2;}
	.st104{fill:#C7C7C7;}
	.st105{fill:#CCCCCC;}
	.st106{fill:#D1D1D1;}
	.st107{fill:#D6D6D6;}
	.st108{fill:#DBDBDB;}
	.st109{fill:#E0E0E0;}
	.st110{fill:#ADADAD;}
	.st111{fill:#A8A8A8;}
	.st112{fill:#A3A3A3;}
	.st113{fill:#9E9E9E;}
	.st114{fill:#999999;}
	.st115{fill:#949494;}
	.st116{fill:#8F8F8F;}
	.st117{fill:#8A8A8A;}
	.st118{fill:#858585;}
	.st119{fill:#B2B2B2;}
	.st120{clip-path:url(#SVGID_38_);enable-background:new    ;}
	.st121{fill:#B5B5B5;}
	.st122{clip-path:url(#SVGID_40_);enable-background:new    ;}
	.st123{fill:none;stroke:#98B3E0;stroke-width:0.8916;stroke-linecap:round;stroke-linejoin:round;stroke-miterlimit:10;}
	.st124{fill:#5D9B7A;stroke:#4776C7;stroke-width:5.7412;stroke-linecap:round;stroke-linejoin:round;stroke-miterlimit:10;}
	.st125{fill:#6DB591;stroke:#4776C7;stroke-width:5.7412;stroke-linecap:round;stroke-linejoin:round;stroke-miterlimit:10;}
	.st126{fill:#68AF8D;stroke:#4776C7;stroke-width:5.7412;stroke-linecap:round;stroke-linejoin:round;stroke-miterlimit:10;}
	.st127{fill:#86EBC0;stroke:#4776C7;stroke-width:5.7412;stroke-linecap:round;stroke-linejoin:round;stroke-miterlimit:10;}
	.st128{fill:#7CCEA5;stroke:#4776C7;stroke-width:5.7412;stroke-linecap:round;stroke-linejoin:round;stroke-miterlimit:10;}
	.st129{fill:url(#SVGID_41_);stroke:#4776C7;stroke-width:7.654;stroke-linecap:round;stroke-linejoin:round;stroke-miterlimit:10;}
	
		.st130{fill:url(#SVGID_42_);stroke:#4776C7;stroke-width:7.7373;stroke-linecap:round;stroke-linejoin:round;stroke-miterlimit:10;}
	
		.st131{fill:url(#SVGID_43_);stroke:#4776C7;stroke-width:7.7373;stroke-linecap:round;stroke-linejoin:round;stroke-miterlimit:10;}
</style>
<g>
	<g>
		<path class="st124" d="M212.2,206.6c-24,24.8-50.5,1.1-51.3,1c0,0,0,0,0,0c0.4-0.3,3.8-12.8,3.8-12.8
			c30.6,6.6,44.9-19.2,44.8-19.2C220,187.7,212.2,206.6,212.2,206.6z"/>
		<path class="st125" d="M159,211.1c30.2,31,53.9,6.2,59.1,3.8c-1.7-2.6-3.4-5.3-5.1-7.9l-0.7-0.4c-24,24.8-50.5,1.1-51.3,1
			c0,0,0,0,0,0L159,211.1z"/>
		<path class="st126" d="M218.3,213.9c1.6-6.7,12.4-40.5-9.1-37.9l0.3-0.5c10.5,12.2,2.8,31.1,2.8,31.1l0.7,0.4
			c1.7,2.6,3.4,5.3,5.1,7.9L218.3,213.9z"/>
	</g>
	<g>
		<g>
			<g>
				<g>
					<g>
						<path class="st3" d="M71.4,309.7c0,0,0.2,0.9,0.4,2.3c0.2,1.5,0.3,3.6,0.1,6.1c-0.2,2.5-0.8,5.2-2.4,8c-1.6,2.7-4,5.6-8.2,8
							c-4.2,2.4-8.1,2.8-11.5,1.8c-3.4-1-6.4-3.3-8.6-6c-2.2-2.7-3.8-5.9-4.7-8.5c-0.9-2.6-1.2-4.5-1.2-4.5"/>
						<path class="st2" d="M31.9,317.3C31.8,316.4,31.9,317.3,31.9,317.3l6.7-1.3c0,0,0.6,3.6,2.4,7.4c1.8,3.8,4.8,7.9,8.5,9.5
							c3.4,1.5,6.7,0.6,10.5-1.3c3.8-1.9,6.4-3.8,7.7-6.9c1.4-3.2,1.2-6.9,1-9.7c-0.3-2.8-0.7-4.7-0.7-4.7l6.7-1.3
							c0,0.2,0.5,2,0.7,5.2c0.2,3.1,0.2,7.4-1.7,11.7c-0.9,2.2-2.4,4-4.2,5.8c-0.9,0.9-1.8,1.9-2.8,2.8c-0.5,0.5-1,0.9-1.5,1.3
							c-0.6,0.4-1.2,0.8-1.8,1.3c-0.6,0.5-1.2,0.9-1.8,1.4c-0.6,0.5-1.2,0.9-1.9,1.2c-1.3,0.7-2.6,1.2-3.9,1.4
							c-2.8,0.4-5.6,0-8.4-1.2c-4.9-2.1-8.9-6.6-11.5-11.3C33.4,323.8,32.2,319,31.9,317.3z"/>
					</g>
				</g>
				<g>
					<path class="st3" d="M72.9,287.1c-2.3,7.1-2.5,14.6-1.2,22.2l-36.8,7c-0.3-1.7-0.5-3.3-0.7-5l-0.3-2.5
						c-0.1-0.8-0.1-1.7-0.2-2.5l-0.3-5.1c0-1.7,0.1-3.4,0.1-5.1c0.4-6.8,1.5-13.7,3.6-20.2L72.9,287.1z"/>
					<path class="st39" d="M34.2,303.3c0.4-2.3,1.7-4.3,3.1-5.9c1.5-1.6,3.3-2.9,5.3-3.8c4.1-1.8,8.5-2.2,12.1-1.7
						c2.9,0.4,6.9,2.1,9.7,3.3c0.8,0.6,1.9,1.5,2.8,2.2c0.9,0.7,1.7,1.3,1.7,1.3"/>
					<path class="st40" d="M35.2,316.3c-0.3-1.7-0.5-3.3-0.7-5l-0.3-2.5c-0.1-0.8-0.1-1.7-0.2-2.5l-0.3-5.1c0-1.7,0.1-3.4,0.1-5.1
						c0.4-6.8,1.5-13.7,3.6-20.1"/>
					<path class="st40" d="M71.4,309.4c-1.3-7.7-1.1-15.3,1.2-22.4"/>
				</g>
				<g>
					<path class="st3" d="M84.8,267.4c-2.8,2.9-5.2,6.1-7.2,9.4c-2,3.3-3.5,6.8-4.7,10.3l-35.7-11.2c2.1-6.5,4.9-12.7,8.4-18.5
						c3.5-5.7,7.5-11,12-15.7L84.8,267.4z"/>
					<path class="st39" d="M42.7,264c1.5-1.7,3.5-2.9,5.5-3.6c2.1-0.7,4.3-0.9,6.5-0.8c4.3,0.3,8.6,2,11.5,4.1
						c2.4,1.7,5.1,5,7.1,7.5c0.5,0.9,1,2.2,1.5,3.3c0.4,1.1,0.8,1.9,0.8,1.9"/>
					<path class="st40" d="M37.4,276c2.1-6.5,4.9-12.7,8.3-18.4c3.5-5.7,7.5-10.9,12-15.7"/>
					<path class="st40" d="M72.6,287c1.1-3.6,2.7-7,4.7-10.4c2-3.3,4.5-6.5,7.3-9.5"/>
				</g>
				<g>
					<path class="st3" d="M106.3,250.8c-4.1,2.6-8.1,5.5-12.1,8.4l-1.5,1.1c-0.5,0.4-0.8,0.6-1.2,1l-1.2,0.9l-1.1,1l-1.1,1l-1.1,1
						c-0.7,0.7-1.5,1.4-2.1,2.1l-27.2-25.7c1.1-1.2,2.3-2.4,3.5-3.5l1.8-1.7l1.8-1.6l1.9-1.6l1.9-1.5c0.6-0.5,1.3-1.1,1.9-1.5
						L72,229c4.5-3.3,9.1-6.5,13.9-9.6L106.3,250.8z"/>
					<path class="st39" d="M67.2,233.6c4.3-1.9,8.4-0.8,12.2,1.1c3.8,1.9,7.2,4.9,9.2,7.8c1.7,2.4,3.2,6.5,4,9.5
						c0.1,2.1-0.4,6.1-0.4,6.1"/>
					<path class="st40" d="M57.7,241.9c1.1-1.2,2.3-2.3,3.4-3.5l1.8-1.7l1.8-1.6l1.9-1.6l1.9-1.5c0.6-0.5,1.3-1.1,1.9-1.5l1.7-1.2
						c4.5-3.3,9.1-6.5,13.9-9.6"/>
					<path class="st40" d="M84.5,267.2c0.7-0.8,1.4-1.5,2.1-2.2l1.1-1.1l1.1-1l1.1-1l1.2-0.9c0.4-0.3,0.7-0.6,1.2-1L94,259
						c4-3,8.1-5.8,12.2-8.4"/>
				</g>
				<g>
					<path class="st3" d="M131.9,236.5c-9.2,4.4-17.4,9-25.6,14.3l-20.4-31.4l3.6-2.3c1.2-0.8,2.4-1.5,3.7-2.2
						c2.4-1.5,4.9-2.9,7.4-4.3c5-2.8,10.1-5.4,15-7.7L131.9,236.5z"/>
					<path class="st39" d="M95.7,214.2c3.9-0.9,8.1,0.4,11.6,2.9c3.6,2.4,6.5,5.9,8.2,9c1.4,2.6,2.3,6.8,2.7,9.9
						c-0.1,1-0.4,2.5-0.6,3.8c-0.3,1.2-0.5,2.2-0.5,2.2"/>
					<path class="st40" d="M86.1,219.7l3.6-2.3c1.2-0.8,2.4-1.5,3.7-2.2c2.4-1.5,4.9-2.9,7.4-4.3c5-2.8,10.1-5.4,15-7.7"/>
					<path class="st40" d="M106.1,250.6c8.2-5.3,16.5-9.9,25.7-14.3"/>
				</g>
				<g>
					<path class="st3" d="M160.9,222.5c-9.8,5.1-19.8,9.6-28.9,14l-16.4-33.7c9.9-4.8,19.1-9,28.1-13.6L160.9,222.5z"/>
					<path class="st39" d="M125.3,199c3.7-0.4,7.5,1.3,10.9,3.9c3.4,2.6,6.2,6.1,7.8,9.3c1.3,2.7,2,6.9,2.2,10.1
						c-0.3,2.1-1.7,6.1-1.7,6.1"/>
					<path class="st40" d="M115.7,203.1c9.9-4.8,19.1-9,28.1-13.6"/>
					<path class="st40" d="M131.8,236.2c9.1-4.4,19.1-9,28.9-14"/>
				</g>
				<g>
					<g>
						<path class="st3" d="M144.1,189.4c0,0,1.2-0.6,3-1.4c1.9-0.8,4.5-1.6,7.3-1.9c5.7-0.7,12.7,0.5,17.6,8.8
							c4.9,8.3,2.3,15.2-1.7,20c-2,2.4-4.4,4.2-6.2,5.4c-1.8,1.2-3.1,1.9-3.1,1.9"/>
						<path class="st2" d="M162.5,225.1C161.9,225.4,162.5,225.1,162.5,225.1l-3.1-6c0,0,0.6-0.3,1.6-0.9c1-0.6,2.3-1.5,3.8-2.6
							c2.9-2.2,5.9-5.4,7-9.1c1-3.4-0.1-6.6-2.2-10.2c-2.1-3.7-4.1-6.3-7.5-7.1c-3.6-1-7.7-0.1-10.9,1c-1.6,0.5-3,1.1-4,1.6
							c-1,0.5-1.6,0.8-1.6,0.8l-3.1-6c0.3-0.1,3-1.7,6.9-2.9c3.9-1.2,8.9-2.1,13.9-0.8c5.1,1.3,8.9,4.9,12,10.2
							c3.1,5.2,4.5,10.2,3,15.5c-1.3,4.7-4.8,8.6-8.1,11.5C166.9,222.7,163.7,224.5,162.5,225.1z"/>
					</g>
				</g>
			</g>
		</g>
	</g>
	<g>
		<path class="st127" d="M215.9,160.4c0,0,14.3,10.6,12.7,34c0,0-30.4-39.5-66.5,11.1c0,0,0,0,0,0c0.1-0.2,1.2-11.5-7.8-21.5
			C181.9,140,215.9,160.4,215.9,160.4z"/>
		<path class="st128" d="M227.9,197.1c-3.5,1.8-5.5,3.2-9,5c-0.5,0.3-1.8-0.9-2.3-1.5c-14.8-17.6-38.5-5.2-54.6,7.5l0-2.7
			c0,0,0,0,0,0c36.1-50.5,66.5-11.1,66.5-11.1L227.9,197.1z"/>
	</g>
</g>
</svg>
