<?xml version="1.0" encoding="utf-8"?>
<!-- Generator: Adobe Illustrator 22.0.1, SVG Export Plug-In . SVG Version: 6.00 Build 0)  -->
<svg version="1.1" id="Camada_1" xmlns="http://www.w3.org/2000/svg" xmlns:xlink="http://www.w3.org/1999/xlink" x="0px" y="0px"
	 viewBox="0 0 465 493" style="enable-background:new 0 0 465 493;" xml:space="preserve">
<style type="text/css">
	.st0{fill:#FFFFFF;}
	.st1{fill:#CFEBF7;stroke:#4776C7;stroke-width:6.9636;stroke-linejoin:round;stroke-miterlimit:10;}
	.st2{fill:#4776C7;}
	.st3{fill:#F4FBFF;}
	.st4{fill:#FFFFFF;stroke:#4776C7;stroke-width:4.6511;stroke-miterlimit:10;}
	.st5{fill:#4776C7;stroke:#4776C7;stroke-width:4.7017;stroke-linecap:round;stroke-linejoin:round;stroke-miterlimit:10;}
	.st6{fill:#FFFFFF;stroke:#4776C7;stroke-width:4.6511;stroke-linecap:round;stroke-linejoin:round;stroke-miterlimit:10;}
	.st7{fill:url(#SVGID_1_);stroke:#4776C7;stroke-width:4.6511;stroke-linecap:round;stroke-linejoin:round;stroke-miterlimit:10;}
	.st8{opacity:0.5;fill:none;stroke:#F4FBFF;stroke-width:4.7017;stroke-miterlimit:10;}
	.st9{opacity:0.5;fill:none;stroke:#F4FBFF;stroke-width:4.6511;stroke-miterlimit:10;}
	.st10{fill:none;stroke:#4776C7;stroke-width:4.7017;stroke-linecap:round;stroke-linejoin:round;stroke-miterlimit:10;}
	.st11{fill:none;stroke:#4776C7;stroke-width:4.7017;stroke-miterlimit:10;}
	.st12{fill:#88BBFC;stroke:#4776C7;stroke-width:4.7017;stroke-miterlimit:10;}
	.st13{fill:none;stroke:#4776C7;stroke-width:4.6511;stroke-miterlimit:10;}
	.st14{fill:url(#SVGID_2_);stroke:#4776C7;stroke-width:4.6511;stroke-linecap:round;stroke-linejoin:round;stroke-miterlimit:10;}
	.st15{fill:#88BBFC;stroke:#4776C7;stroke-width:4.6511;stroke-miterlimit:10;}
	.st16{fill:#FFFFFF;stroke:#4776C7;stroke-width:4.6511;stroke-linejoin:round;stroke-miterlimit:10;}
	.st17{fill:none;stroke:#4776C7;stroke-width:4.6511;stroke-linecap:round;stroke-linejoin:round;stroke-miterlimit:10;}
	.st18{fill:url(#);stroke:#4776C7;stroke-width:4.6511;stroke-linecap:round;stroke-linejoin:round;stroke-miterlimit:10;}
	.st19{fill:#4370FA;stroke:#4776C7;stroke-width:4.7709;stroke-linecap:round;stroke-linejoin:round;stroke-miterlimit:10;}
	.st20{fill:#FFFFFF;stroke:#4776C7;stroke-width:4.4784;stroke-linecap:round;stroke-linejoin:round;stroke-miterlimit:10;}
	.st21{fill:#86EBC0;stroke:#4776C7;stroke-width:4.4784;stroke-linecap:round;stroke-linejoin:round;stroke-miterlimit:10;}
	.st22{fill:none;stroke:#4776C7;stroke-width:4.3095;stroke-linecap:round;stroke-miterlimit:10;}
	.st23{fill:none;stroke:#4776C7;stroke-width:4.2808;stroke-miterlimit:10;}
	.st24{fill:#CFEBF7;stroke:#4776C7;stroke-width:4.7017;stroke-linecap:round;stroke-linejoin:round;stroke-miterlimit:10;}
	.st25{fill:#CFEBF7;stroke:#4776C7;stroke-width:4.6511;stroke-linecap:round;stroke-linejoin:round;stroke-miterlimit:10;}
	.st26{fill:#B4DDFD;stroke:#4776C7;stroke-width:4.6511;stroke-miterlimit:10;}
	.st27{fill:url(#SVGID_3_);stroke:#4776C7;stroke-width:4.6511;stroke-linecap:round;stroke-linejoin:round;stroke-miterlimit:10;}
	.st28{fill:url(#SVGID_4_);stroke:#4776C7;stroke-width:4.7017;stroke-linecap:round;stroke-linejoin:round;stroke-miterlimit:10;}
	.st29{fill:url(#SVGID_5_);stroke:#4776C7;stroke-width:4.7017;stroke-linecap:round;stroke-linejoin:round;stroke-miterlimit:10;}
	.st30{fill:#F4FBFF;stroke:#4776C7;stroke-width:4.6511;stroke-linecap:round;stroke-linejoin:round;stroke-miterlimit:10;}
	.st31{fill:url(#SVGID_6_);stroke:#4776C7;stroke-width:4.6511;stroke-linecap:round;stroke-linejoin:round;stroke-miterlimit:10;}
	.st32{fill:url(#SVGID_7_);stroke:#4776C7;stroke-width:4.6511;stroke-linecap:round;stroke-linejoin:round;stroke-miterlimit:10;}
	.st33{fill:#B4DDFD;stroke:#4776C7;stroke-width:4.6511;stroke-linecap:round;stroke-linejoin:round;stroke-miterlimit:10;}
	.st34{fill:#B4DDFD;stroke:#4776C7;stroke-width:4.6511;stroke-linejoin:round;stroke-miterlimit:10;}
	.st35{fill:none;stroke:#4776C7;stroke-width:4.0017;stroke-linecap:round;stroke-miterlimit:10;}
	.st36{fill:none;stroke:#4776C7;stroke-width:3.9751;stroke-miterlimit:10;}
	.st37{fill:#86EBC0;stroke:#4776C7;stroke-width:7.3697;stroke-linecap:round;stroke-linejoin:round;stroke-miterlimit:10;}
	.st38{fill:#FFFFFF;stroke:#4776C7;stroke-width:7.3697;stroke-linecap:round;stroke-linejoin:round;stroke-miterlimit:10;}
	.st39{fill:none;stroke:#4776C7;stroke-width:6.8007;stroke-linecap:round;stroke-miterlimit:10;}
	.st40{fill:none;stroke:#4776C7;stroke-width:6.7555;stroke-miterlimit:10;}
	.st41{fill:#CFEBF7;stroke:#4776C7;stroke-width:6.9636;stroke-linecap:round;stroke-linejoin:round;stroke-miterlimit:10;}
	.st42{fill:#CFEBF7;stroke:#4776C7;stroke-width:7.3697;stroke-linecap:round;stroke-linejoin:round;stroke-miterlimit:10;}
	.st43{fill:#CFEBF7;stroke:#4776C7;stroke-width:7.3697;stroke-miterlimit:10;}
	.st44{fill:#FFFFFF;stroke:#4776C7;stroke-width:10.8322;stroke-linecap:round;stroke-linejoin:round;stroke-miterlimit:10;}
	.st45{fill:#4370FA;stroke:#4776C7;stroke-width:7.3697;stroke-linecap:round;stroke-linejoin:round;stroke-miterlimit:10;}
	.st46{fill:#F4FBFF;stroke:#4776C7;stroke-width:7.3697;stroke-linecap:round;stroke-linejoin:round;stroke-miterlimit:10;}
	.st47{fill:url(#SVGID_8_);stroke:#4776C7;stroke-width:7.3697;stroke-linecap:round;stroke-linejoin:round;stroke-miterlimit:10;}
	.st48{opacity:0.5;fill:none;stroke:#F4FBFF;stroke-width:6.9636;stroke-miterlimit:10;}
	.st49{opacity:0.5;fill:none;stroke:#F4FBFF;stroke-width:7.3697;stroke-miterlimit:10;}
	.st50{fill:none;stroke:#4776C7;stroke-width:6.9636;stroke-linecap:round;stroke-linejoin:round;stroke-miterlimit:10;}
	.st51{fill:none;stroke:#4776C7;stroke-width:6.9636;stroke-miterlimit:10;}
	.st52{fill:#88BBFC;stroke:#4776C7;stroke-width:6.9636;stroke-miterlimit:10;}
	.st53{fill:none;stroke:#4776C7;stroke-width:7.3697;stroke-miterlimit:10;}
	.st54{fill:url(#SVGID_9_);stroke:#4776C7;stroke-width:7.3697;stroke-linecap:round;stroke-linejoin:round;stroke-miterlimit:10;}
	.st55{fill:#88BBFC;stroke:#4776C7;stroke-width:7.3697;stroke-miterlimit:10;}
	.st56{fill:url(#SVGID_10_);stroke:#4776C7;stroke-width:7.654;stroke-linecap:round;stroke-linejoin:round;stroke-miterlimit:10;}
	.st57{fill:url(#SVGID_11_);stroke:#4776C7;stroke-width:7.7373;stroke-linecap:round;stroke-linejoin:round;stroke-miterlimit:10;}
	.st58{fill:url(#SVGID_12_);stroke:#4776C7;stroke-width:7.7373;stroke-linecap:round;stroke-linejoin:round;stroke-miterlimit:10;}
	.st59{fill:#FFFFFF;stroke:#4776C7;stroke-width:6.9636;stroke-linejoin:round;stroke-miterlimit:10;}
	.st60{fill:url(#SVGID_13_);stroke:#4776C7;stroke-width:7.3697;stroke-linecap:round;stroke-linejoin:round;stroke-miterlimit:10;}
	.st61{fill:url(#SVGID_14_);stroke:#4776C7;stroke-width:7.3697;stroke-linecap:round;stroke-linejoin:round;stroke-miterlimit:10;}
	.st62{fill:url(#SVGID_15_);stroke:#4776C7;stroke-width:7.654;stroke-linecap:round;stroke-linejoin:round;stroke-miterlimit:10;}
	.st63{fill:url(#SVGID_16_);stroke:#4776C7;stroke-width:7.7373;stroke-linecap:round;stroke-linejoin:round;stroke-miterlimit:10;}
	.st64{fill:url(#SVGID_17_);stroke:#4776C7;stroke-width:7.7373;stroke-linecap:round;stroke-linejoin:round;stroke-miterlimit:10;}
	.st65{fill:url(#SVGID_18_);stroke:#4776C7;stroke-width:7.3697;stroke-linecap:round;stroke-linejoin:round;stroke-miterlimit:10;}
	.st66{fill:url(#SVGID_19_);stroke:#4776C7;stroke-width:7.3697;stroke-linecap:round;stroke-linejoin:round;stroke-miterlimit:10;}
	.st67{fill:url(#SVGID_20_);stroke:#4776C7;stroke-width:7.654;stroke-linecap:round;stroke-linejoin:round;stroke-miterlimit:10;}
	.st68{fill:url(#SVGID_21_);stroke:#4776C7;stroke-width:7.7373;stroke-linecap:round;stroke-linejoin:round;stroke-miterlimit:10;}
	.st69{fill:url(#SVGID_22_);stroke:#4776C7;stroke-width:7.7373;stroke-linecap:round;stroke-linejoin:round;stroke-miterlimit:10;}
	.st70{fill:url(#SVGID_23_);stroke:#4776C7;stroke-width:7.3697;stroke-linecap:round;stroke-linejoin:round;stroke-miterlimit:10;}
	.st71{fill:url(#SVGID_24_);stroke:#4776C7;stroke-width:7.3697;stroke-linecap:round;stroke-linejoin:round;stroke-miterlimit:10;}
	.st72{fill:url(#SVGID_25_);stroke:#4776C7;stroke-width:7.654;stroke-linecap:round;stroke-linejoin:round;stroke-miterlimit:10;}
	.st73{fill:url(#SVGID_26_);stroke:#4776C7;stroke-width:7.7373;stroke-linecap:round;stroke-linejoin:round;stroke-miterlimit:10;}
	.st74{fill:url(#SVGID_27_);stroke:#4776C7;stroke-width:7.7373;stroke-linecap:round;stroke-linejoin:round;stroke-miterlimit:10;}
	.st75{fill:url(#SVGID_28_);stroke:#4776C7;stroke-width:7.3697;stroke-linecap:round;stroke-linejoin:round;stroke-miterlimit:10;}
	.st76{fill:url(#SVGID_29_);stroke:#4776C7;stroke-width:7.3697;stroke-linecap:round;stroke-linejoin:round;stroke-miterlimit:10;}
	.st77{fill:url(#SVGID_30_);stroke:#4776C7;stroke-width:7.654;stroke-linecap:round;stroke-linejoin:round;stroke-miterlimit:10;}
	.st78{fill:url(#SVGID_31_);stroke:#4776C7;stroke-width:7.7373;stroke-linecap:round;stroke-linejoin:round;stroke-miterlimit:10;}
	.st79{fill:url(#SVGID_32_);stroke:#4776C7;stroke-width:7.7373;stroke-linecap:round;stroke-linejoin:round;stroke-miterlimit:10;}
	.st80{fill:none;stroke:#4776C7;stroke-width:4.1326;stroke-linecap:round;stroke-miterlimit:10;}
	.st81{fill:none;stroke:#4776C7;stroke-width:4.1052;stroke-miterlimit:10;}
	.st82{fill:#88BBFC;stroke:#4776C7;stroke-width:4.2316;stroke-linejoin:round;stroke-miterlimit:10;}
	.st83{fill:#CFEBF7;stroke:#4776C7;stroke-width:4.2316;stroke-linecap:round;stroke-linejoin:round;stroke-miterlimit:10;}
	.st84{fill:#CFEBF7;stroke:#4776C7;stroke-width:4.4784;stroke-linecap:round;stroke-linejoin:round;stroke-miterlimit:10;}
	.st85{fill:#88BBFC;stroke:#4776C7;stroke-width:4.4784;stroke-miterlimit:10;}
	.st86{fill:#FFFFFF;stroke:#4776C7;stroke-width:7.2274;stroke-linecap:round;stroke-linejoin:round;stroke-miterlimit:10;}
	.st87{fill:#4370FA;stroke:#4776C7;stroke-width:4.4784;stroke-linecap:round;stroke-linejoin:round;stroke-miterlimit:10;}
	.st88{fill:#F4FBFF;stroke:#4776C7;stroke-width:4.4784;stroke-linecap:round;stroke-linejoin:round;stroke-miterlimit:10;}
	.st89{fill:url(#SVGID_33_);stroke:#4776C7;stroke-width:4.4784;stroke-linecap:round;stroke-linejoin:round;stroke-miterlimit:10;}
	.st90{fill:#88BBFC;stroke:#4776C7;stroke-width:4.4784;stroke-linecap:round;stroke-linejoin:round;stroke-miterlimit:10;}
	.st91{opacity:0.5;fill:none;stroke:#F4FBFF;stroke-width:4.2316;stroke-miterlimit:10;}
	.st92{opacity:0.5;fill:none;stroke:#F4FBFF;stroke-width:4.4784;stroke-miterlimit:10;}
	.st93{fill:none;stroke:#4776C7;stroke-width:4.2316;stroke-linecap:round;stroke-linejoin:round;stroke-miterlimit:10;}
	.st94{fill:none;stroke:#4776C7;stroke-width:4.2316;stroke-miterlimit:10;}
	.st95{fill:#88BBFC;stroke:#4776C7;stroke-width:4.2316;stroke-miterlimit:10;}
	.st96{fill:none;stroke:#4776C7;stroke-width:4.4784;stroke-miterlimit:10;}
	.st97{fill:url(#SVGID_34_);stroke:#4776C7;stroke-width:4.4784;stroke-linecap:round;stroke-linejoin:round;stroke-miterlimit:10;}
	.st98{enable-background:new    ;}
	.st99{fill:#B3B3B3;}
	.st100{clip-path:url(#SVGID_36_);enable-background:new    ;}
	.st101{fill:#B8B8B8;}
	.st102{fill:#BDBDBD;}
	.st103{fill:#C2C2C2;}
	.st104{fill:#C7C7C7;}
	.st105{fill:#CCCCCC;}
	.st106{fill:#D1D1D1;}
	.st107{fill:#D6D6D6;}
	.st108{fill:#DBDBDB;}
	.st109{fill:#E0E0E0;}
	.st110{fill:#ADADAD;}
	.st111{fill:#A8A8A8;}
	.st112{fill:#A3A3A3;}
	.st113{fill:#9E9E9E;}
	.st114{fill:#999999;}
	.st115{fill:#949494;}
	.st116{fill:#8F8F8F;}
	.st117{fill:#8A8A8A;}
	.st118{fill:#858585;}
	.st119{fill:#B2B2B2;}
	.st120{clip-path:url(#SVGID_38_);enable-background:new    ;}
	.st121{fill:#B5B5B5;}
	.st122{clip-path:url(#SVGID_40_);enable-background:new    ;}
	.st123{fill:none;stroke:#98B3E0;stroke-width:0.8916;stroke-linecap:round;stroke-linejoin:round;stroke-miterlimit:10;}
	.st124{fill:#5D9B7A;stroke:#4776C7;stroke-width:5.7412;stroke-linecap:round;stroke-linejoin:round;stroke-miterlimit:10;}
	.st125{fill:#6DB591;stroke:#4776C7;stroke-width:5.7412;stroke-linecap:round;stroke-linejoin:round;stroke-miterlimit:10;}
	.st126{fill:#68AF8D;stroke:#4776C7;stroke-width:5.7412;stroke-linecap:round;stroke-linejoin:round;stroke-miterlimit:10;}
	.st127{fill:#86EBC0;stroke:#4776C7;stroke-width:5.7412;stroke-linecap:round;stroke-linejoin:round;stroke-miterlimit:10;}
	.st128{fill:#7CCEA5;stroke:#4776C7;stroke-width:5.7412;stroke-linecap:round;stroke-linejoin:round;stroke-miterlimit:10;}
	.st129{fill:url(#SVGID_41_);stroke:#4776C7;stroke-width:7.654;stroke-linecap:round;stroke-linejoin:round;stroke-miterlimit:10;}
	
		.st130{fill:url(#SVGID_42_);stroke:#4776C7;stroke-width:7.7373;stroke-linecap:round;stroke-linejoin:round;stroke-miterlimit:10;}
	
		.st131{fill:url(#SVGID_43_);stroke:#4776C7;stroke-width:7.7373;stroke-linecap:round;stroke-linejoin:round;stroke-miterlimit:10;}
</style>
<g>
	<g>
		<g>
			<g>
				<g>
					<path class="st3" d="M115.5,386.9c0,0,0.2,0,0.5,0c0.6,0,1.7,0,3.2,0.1c1.7,0.1,3,0.3,4.5,0.6c3,0.6,6.3,1.8,9.1,3.6
						c5.7,3.6,9.5,9.7,6.6,18.3c-2.9,8.5-8.6,11.5-13.5,12.9c-2.4,0.7-4.6,1-6.1,1.1c-0.7,0.1-1.5,0.1-1.4,0.2c-0.1,0-0.2,0.1-0.3,0
						c0,0,0,0,0,0"/>
					<path class="st2" d="M118.3,427.1C118.3,427.1,118.3,427.1,118.3,427.1l-0.6-6.8c0,0,0.1,0,0.2,0c0.1,0,0.2,0,0.4,0
						c0.1,0,0.1,0,0.2,0c0.1,0,0.1,0,0.3-0.1c0.9-0.1,2-0.1,3.3-0.3c2.6-0.3,5.9-0.9,8.7-2.6c2.9-1.8,4.5-4.7,5.7-8.8
						c1.2-4.1,1.6-7.3-0.5-10.4c-2-2.9-5.7-5-9.5-6.3c-1.9-0.6-3.8-1-5.6-1.3c-0.4,0-1-0.1-1.5-0.2c-0.5-0.1-1-0.1-1.4-0.1
						c-0.8,0-1.5,0-2,0c-0.6,0-0.9,0.1-0.9,0.1l-0.5-6.8c0.1,0,0.4,0,1-0.1c0.6,0,1.5,0,2.7,0c0.6,0,1.2,0.1,1.9,0.1
						c0.3,0,0.6,0.1,1,0.1c0.3,0,0.6,0.1,0.8,0.1c2.2,0.3,4.8,0.9,7.3,1.8c5,1.8,9.9,4.8,12.8,9.2c1.6,2.5,2.4,5,2.5,7.7
						c0.1,2.7-0.2,5.6-1.7,8.3c-0.7,1.4-1.4,2.6-2,3.9c-0.2,0.3-0.3,0.6-0.4,0.9c-0.2,0.3-0.4,0.6-0.5,0.9c-0.4,0.6-0.7,1.1-1.1,1.6
						c-1.5,2.1-3.3,3.8-5.5,5.1c-3.7,2.1-7.7,2.9-10.8,3.3c-1.6,0.2-2.8,0.3-3.8,0.4c-0.3,0-0.4,0-0.6,0.1
						C118.2,427,118.3,427,118.3,427.1C118.3,427.1,118.3,427.1,118.3,427.1L118.3,427.1z"/>
				</g>
			</g>
			<g>
				<path class="st3" d="M75.5,411c4.4-5.1,9.2-9.8,14.9-14.1c1.4-1.1,3-2.1,4.5-3.1c0.8-0.5,1.7-1,2.5-1.5l1.3-0.7l1.4-0.7
					c4.4-2.2,9.3-4,14.4-4.2L118,424c-0.1,0-0.2,0-0.3,0l-0.3,0.1l-0.3,0.1c0,0-0.1,0-0.1,0.1c-0.1,0,0,0-0.2,0.1l-0.4,0.2l-0.5,0.3
					c-0.3,0.2-0.7,0.4-1,0.6c-0.7,0.5-1.4,0.9-2.2,1.5c-3,2.2-6.1,5.2-8.8,8.3L75.5,411z"/>
				<path class="st39" d="M115.4,424.3c-4.8,0-14.8-5-19.6-10.3c-2-2.2-3.7-6.1-4.5-9.4c0-0.6,0-1.3,0.1-2c0.1-0.7,0.3-1.5,0.4-2.3
					c0.3-1.4,0.7-2.6,0.7-2.6"/>
				<path class="st40" d="M118,423.7c-0.1,0-0.2,0-0.3,0l-0.3,0.1l-0.3,0.1c-0.1,0-0.1,0-0.1,0.1c-0.1,0,0,0-0.2,0.1l-0.4,0.2
					l-0.5,0.3c-0.3,0.2-0.7,0.4-1,0.6c-0.7,0.5-1.5,0.9-2.2,1.5c-3,2.3-6.1,5.2-8.8,8.4"/>
				<path class="st40" d="M114.5,387c-5,0.2-9.9,2-14.3,4.2l-1.4,0.7l-1.3,0.7c-0.8,0.5-1.7,1-2.5,1.5c-1.5,1-3.1,2-4.5,3.1
					c-5.7,4.3-10.5,8.9-14.9,14"/>
			</g>
			<g>
				<path class="st3" d="M56.5,447l1.4-4.7l1.7-4.9c0.7-1.7,1.4-3.4,2.1-5c0.8-1.6,1.5-3.1,2.3-4.7c3.3-6.1,7.2-11.6,11.5-16.7
					l28.5,24.4c-2.7,3.2-5.1,6.6-7,10.1l-1.3,2.6l-1.1,2.5l-1,2.9l-0.9,3.1L56.5,447z"/>
				<path class="st39" d="M98.5,441.4c-1.3,0.8-2.8,1.3-4.6,1.6c-1.8,0.3-3.8,0.4-5.9,0.3c-4.2-0.2-8.6-0.9-11.9-2.3
					c-2.7-1.1-6-4.1-8-6.6c-0.5-1-1-2.7-1.3-4.1c-0.2-0.7-0.3-1.4-0.4-1.8c-0.1-0.5-0.1-0.8-0.1-0.8"/>
				<path class="st40" d="M103.7,435.2c-2.7,3.2-5.1,6.7-7,10.2l-1.3,2.7l-1.1,2.5l-1,2.9l-0.9,3.2"/>
				<path class="st40" d="M75.7,411.2c-4.4,5.1-8.2,10.6-11.5,16.7c-0.8,1.5-1.6,3.1-2.3,4.7c-0.7,1.6-1.4,3.3-2.1,5l-1.7,4.8
					l-1.4,4.7"/>
			</g>
			<g>
				<path class="st3" d="M50.8,482.4c0.5-5.7,1.1-11.5,2.1-17.4c0.9-5.9,2-11.8,3.6-18l36.2,9.6c-1.1,4.3-2.1,9.1-2.8,14
					c-0.8,4.9-1.3,10-1.8,15.1L50.8,482.4z"/>
				<path class="st39" d="M90,465.4c-3.5,5.9-14.4,8.7-21.4,7.9c-2.9-0.4-6.9-2.1-9.6-3.8c-1.6-1.5-4-5.2-4-5.2"/>
				<path class="st40" d="M92.4,456.6c-1.1,4.4-2.1,9.1-2.8,14c-0.8,4.9-1.3,10-1.8,15.1"/>
				<path class="st40" d="M56.8,447.1c-1.6,6.2-2.7,12.1-3.6,18c-0.9,5.9-1.5,11.6-2.1,17.3"/>
			</g>
			<g>
				<path class="st3" d="M49.1,516.3c0.2-11.2,0.7-22.5,1.7-34l37.3,3.4c-0.9,10.3-1.4,20.8-1.6,31.3L49.1,516.3z"/>
				<path class="st39" d="M86.6,495.7c-1.4,3.4-4.8,6-8.6,7.8c-3.9,1.8-8.3,2.7-11.9,2.5c-3-0.1-7-1.5-9.9-2.9
					c-1.7-1.3-4.5-4.6-4.5-4.6"/>
				<path class="st40" d="M87.8,485.7c-0.9,10.3-1.4,20.8-1.6,31.3"/>
				<path class="st40" d="M51.1,482.4c-1,11.4-1.5,22.7-1.7,33.9"/>
			</g>
		</g>
	</g>
</g>
<g>
	<g>
		<g>
			<g>
				<g>
					<path class="st3" d="M351.3,426.9c0,0-0.9-0.2-2.2-0.8c-1.4-0.5-3.3-1.4-5.4-2.8c-2.1-1.4-4.2-3.2-5.9-5.9
						c-1.7-2.7-3-6.2-3.1-11c-0.1-4.8,1.3-8.4,3.8-11c2.5-2.6,5.9-4.1,9.4-4.7c3.5-0.7,7-0.5,9.7-0.1c2.7,0.4,4.5,1,4.5,1"/>
					<path class="st2" d="M363.3,388.6C364.2,388.9,363.3,388.6,363.3,388.6l-2,6.5c0,0-3.4-1.2-7.7-1.4c-4.2-0.2-9.2,0.5-12.4,3
						c-3,2.3-3.7,5.6-3.8,9.8c-0.1,4.2,0.4,7.5,2.4,10c2.2,2.7,5.5,4.4,8.1,5.5c2.6,1.1,4.5,1.6,4.5,1.6l-2,6.5
						c-0.2,0-2-0.5-4.9-1.8c-2.8-1.3-6.6-3.4-9.5-7c-1.5-1.9-2.4-4-3.1-6.4c-0.4-1.2-0.8-2.5-1.2-3.8c-0.2-0.7-0.4-1.3-0.4-2
						c-0.1-0.7-0.2-1.4-0.3-2.2c-0.1-0.8-0.3-1.5-0.4-2.3c-0.2-0.8-0.2-1.5-0.2-2.2c0-1.4,0.2-2.8,0.6-4.1c1-2.6,2.7-4.9,5.1-6.8
						c4.2-3.3,10-4.7,15.4-4.7C356.8,386.8,361.7,388.1,363.3,388.6z"/>
				</g>
			</g>
			<g>
				<path class="st3" d="M370.5,438.9c-5.2-5.3-11.7-9.1-19-11.6l11.3-35.7c1.6,0.6,3.2,1.1,4.8,1.7l2.4,0.9c0.8,0.3,1.5,0.7,2.3,1
					l4.6,2.2c1.5,0.8,3,1.7,4.4,2.6c5.8,3.6,11.4,7.8,16.1,12.8L370.5,438.9z"/>
				<path class="st39" d="M374.5,397.2c1.8,1.4,3,3.5,3.7,5.6c0.7,2.1,1,4.3,0.9,6.5c-0.3,4.4-2.1,8.6-4.2,11.4
					c-1.8,2.4-5.1,5.1-7.5,7c-0.9,0.5-2.2,1-3.3,1.5c-1.1,0.5-1.9,0.9-1.9,0.9"/>
				<path class="st40" d="M362.7,391.9c1.6,0.6,3.2,1.1,4.7,1.7l2.3,0.9c0.8,0.3,1.5,0.7,2.3,1l4.6,2.2c1.5,0.8,3,1.7,4.4,2.5
					c5.8,3.6,11.3,7.8,16,12.7"/>
				<path class="st40" d="M351.6,427.1c7.4,2.5,14,6.3,19.1,11.7"/>
			</g>
			<g>
				<path class="st3" d="M382.3,458.7c-1.3-3.8-2.9-7.5-4.9-10.8c-2-3.3-4.3-6.3-6.9-9l26.8-26.2c4.8,4.9,8.9,10.4,12.3,16.1
					c3.4,5.8,6.1,11.8,8.2,18L382.3,458.7z"/>
				<path class="st39" d="M405.1,423.3c0.8,2.2,0.9,4.5,0.6,6.6c-0.3,2.2-1.3,4.3-2.4,6.1c-2.3,3.7-5.9,6.6-9,8.1
					c-2.7,1.3-6.8,2.1-9.9,2.7c-1,0-2.5-0.2-3.6-0.3c-1.1-0.1-2.1-0.2-2.1-0.2"/>
				<path class="st40" d="M397.1,413c4.7,4.9,8.9,10.3,12.3,16.1c3.4,5.7,6.1,11.8,8.1,18"/>
				<path class="st40" d="M370.7,438.7c2.6,2.7,4.9,5.7,6.9,9.1c2,3.4,3.6,7,4.9,10.9"/>
			</g>
			<g>
				<path class="st3" d="M386.6,485.6c-0.4-4.9-1-9.8-1.7-14.7l-0.2-1.8c-0.1-0.6-0.2-1-0.3-1.5l-0.3-1.5l-0.3-1.5l-0.3-1.5
					l-0.4-1.5c-0.3-1-0.5-1.9-0.9-2.9l35.5-11.8c0.6,1.5,1,3.1,1.4,4.7l0.6,2.4l0.5,2.4l0.5,2.4l0.4,2.4c0.1,0.8,0.3,1.7,0.4,2.4
					l0.3,2.1c0.8,5.5,1.4,11.1,1.9,16.8L386.6,485.6z"/>
				<path class="st39" d="M420.3,459.3c-0.3,4.7-3.3,7.7-6.8,10.3c-3.5,2.4-7.8,4-11.3,4.4c-2.9,0.4-7.2-0.3-10.3-1
					c-1.9-0.9-5.2-3.2-5.2-3.2"/>
				<path class="st40" d="M417.5,447c0.5,1.5,1,3.1,1.4,4.7l0.6,2.4l0.5,2.4l0.5,2.4l0.4,2.4c0.1,0.8,0.3,1.7,0.4,2.4l0.3,2.1
					c0.8,5.5,1.4,11.1,1.9,16.8"/>
				<path class="st40" d="M382.5,458.7c0.4,0.9,0.6,1.9,0.9,2.9l0.4,1.5l0.3,1.5l0.3,1.5l0.3,1.5c0.1,0.5,0.2,0.9,0.3,1.5l0.2,1.8
					c0.7,4.9,1.3,9.8,1.7,14.7"/>
			</g>
			<g>
				<path class="st3" d="M387.1,514.9c0.5-10.1,0.4-19.6-0.5-29.3l37.3-3.1l0.3,4.3c0.1,1.4,0.2,2.9,0.2,4.3
					c0.2,2.9,0.2,5.7,0.3,8.6c0.1,5.7,0,11.4-0.3,16.9L387.1,514.9z"/>
				<path class="st39" d="M423.9,493.5c-1.1,3.9-4.2,6.9-8.1,8.9c-3.8,2-8.2,3-11.8,2.9c-3,0-7.1-1.2-10-2.3c-0.9-0.6-2-1.5-3-2.3
					c-1-0.8-1.7-1.5-1.7-1.5"/>
				<path class="st40" d="M423.7,482.5l0.3,4.3c0.1,1.4,0.2,2.9,0.2,4.3c0.2,2.9,0.2,5.7,0.3,8.6c0.1,5.7,0,11.4-0.3,16.9"/>
				<path class="st40" d="M386.9,485.5c0.8,9.8,0.9,19.2,0.5,29.4"/>
			</g>
		</g>
	</g>
</g>
<path class="st1" d="M250,317.4h76.8c16.2,0,27-21.1,27-37.3v-93.2c0-30.9-6.5-55.2-25.4-76.7l0.6,0c-0.5,0.5-0.6,0.8-0.8,0.9
	c-3,1-13.5,4.8-18,1.1c-4.8-3.9-5.1-11.3-1-13.7h-0.6c-22.3-18.6-44.3-29.8-74.9-29.8l0,0c-28.5,0-53.4,7-74.2,23.2
	c-0.5,0.4-1.6-0.9-1.6-0.9c0.6,0.6,1.2,1,1.6,1.3c0,0,1.8,12.6-2.7,16.7c-5.3,4.6-12.8,4.8-18.7,1.2c0,0-2.5,1.6-3.2,2.5
	c-15.6,20.6-26.3,46.3-26.3,74.2v93.2c0,16.2,15.6,37.3,31.8,37.3H223"/>
<polygon class="st41" points="121.8,386.5 110.9,387.1 110.9,425.2 127,424.5 "/>
<polygon class="st42" points="345.3,389.7 357.4,390.8 354.7,429.5 338.8,428.2 "/>
<path class="st43" d="M225.4,331.1c-25.2-0.1-50.3-0.6-75.6,0.6c-9.1,0.4-20.9,5.5-25.5,14.1c-9.3,17.2,0.5,39.8,2.7,57.7
	c3,23.6,8.1,46.8,12,70.3c2.4,14.5,3.6,29.2,5.7,43.7c2.1,14,5.7,28.7,8.6,42.6c1.2,5.9,10.3,16,15.1,18.8c8.8,5,22.5,5.2,32.5,6.1
	c8.7,0.8,17.7,1.2,26.8,1.3c2,0,16.6,0,20.9-0.1c6.7-0.2,13.4-0.6,19.9-1.2c10-0.9,23.7-1.1,32.5-6.1c4.8-2.7,13.9-12.9,15.1-18.8
	c2.9-13.9,6.5-28.6,8.6-42.6c2.2-14.6,3.3-29.3,5.7-43.7c3.9-23.5,9.1-46.7,12-70.3c2.2-17.9,12-40.5,2.7-57.7
	c-4.6-8.6-16.5-13.7-25.5-14.1c-23.6-1.1-47.1-0.8-70.6-0.6C243.5,331.1,229.4,331.1,225.4,331.1z"/>
<path class="st2" d="M233.6,266c43.7,0,79.1-35.4,79.1-79.1c0-43.7-35.4-79.1-79.1-79.1c-43.7,0-79.1,35.4-79.1,79.1
	C154.5,230.6,189.9,266,233.6,266z"/>
<polyline class="st48" points="183.6,331.7 183.6,482.2 208.3,482.2 208.3,549.5 183.6,549.5 183.6,584.7 "/>
<polyline class="st48" points="273.3,331.7 273.3,482.2 249.4,482.2 249.4,549.5 273.3,549.5 273.3,584.7 "/>
<path class="st48" d="M176.2,431.9h-26.4h-12.3c0,0-2.5-46.2-16-44.1"/>
<path class="st49" d="M286.2,423.6l42.3,1.6c0,0,3-45.7,19.7-44.1"/>
<line class="st50" x1="172.8" y1="331.7" x2="172.8" y2="582.4"/>
<line class="st50" x1="283.4" y1="331.7" x2="283.4" y2="582.4"/>
<line class="st50" x1="139.1" y1="479.9" x2="171.6" y2="479.9"/>
<line class="st50" x1="286.9" y1="479.9" x2="329.4" y2="479.9"/>
<path class="st53" d="M225.4,331.1c-25.2-0.1-50.3-0.6-75.6,0.6c-9.1,0.4-20.9,5.5-25.5,14.1c-9.3,17.2,0.5,39.8,2.7,57.7
	c3,23.6,8.1,46.8,12,70.3c2.4,14.5,3.6,29.2,5.7,43.7c2.1,14,5.7,28.7,8.6,42.6c1.2,5.9,10.3,16,15.1,18.8c8.8,5,22.5,5.2,32.5,6.1
	c8.7,0.8,17.7,1.2,26.8,1.3c2,0,16.6,0,20.9-0.1c6.7-0.2,13.4-0.6,19.9-1.2c10-0.9,23.7-1.1,32.5-6.1c4.8-2.7,13.9-12.9,15.1-18.8
	c2.9-13.9,6.5-28.6,8.6-42.6c2.2-14.6,3.3-29.3,5.7-43.7c3.9-23.5,9.1-46.7,12-70.3c2.2-17.9,12-40.5,2.7-57.7
	c-4.6-8.6-16.5-13.7-25.5-14.1c-23.6-1.1-47.1-0.8-70.6-0.6C243.5,331.1,229.4,331.1,225.4,331.1z"/>
<linearGradient id="SVGID_1_" gradientUnits="userSpaceOnUse" x1="-978.6652" y1="461.0549" x2="-974.8387" y2="342.4422" gradientTransform="matrix(1 0 0 1 1207.3944 0)">
	<stop  offset="0" style="stop-color:#67A2FB"/>
	<stop  offset="1" style="stop-color:#86EBC0"/>
</linearGradient>
<polygon style="fill:url(#SVGID_1_);stroke:#4776C7;stroke-width:7.654;stroke-linecap:round;stroke-linejoin:round;stroke-miterlimit:10;" points="
	231.2,344.1 208.8,435.5 231.2,466.9 250.3,435.5 "/>
<linearGradient id="SVGID_2_" gradientUnits="userSpaceOnUse" x1="-959.5258" y1="459.9164" x2="-955.6993" y2="341.3029" gradientTransform="matrix(1 0 0 1 1207.3944 0)">
	<stop  offset="0" style="stop-color:#67A2FB"/>
	<stop  offset="1" style="stop-color:#86EBC0"/>
</linearGradient>
<polygon style="fill:url(#SVGID_2_);stroke:#4776C7;stroke-width:7.7373;stroke-linecap:round;stroke-linejoin:round;stroke-miterlimit:10;" points="
	272.8,344.2 251.6,362.7 230.4,344.2 "/>
<linearGradient id="SVGID_3_" gradientUnits="userSpaceOnUse" x1="-1000.9419" y1="458.582" x2="-997.1154" y2="339.9664" gradientTransform="matrix(1 0 0 1 1207.3944 0)">
	<stop  offset="0" style="stop-color:#67A2FB"/>
	<stop  offset="1" style="stop-color:#86EBC0"/>
</linearGradient>
<polygon style="fill:url(#SVGID_3_);stroke:#4776C7;stroke-width:7.7373;stroke-linecap:round;stroke-linejoin:round;stroke-miterlimit:10;" points="
	231.3,344.2 210.1,362.7 189,344.2 "/>
</svg>
