<?xml version="1.0" encoding="utf-8"?>
<!-- Generator: Adobe Illustrator 22.0.1, SVG Export Plug-In . SVG Version: 6.00 Build 0)  -->
<svg version="1.1" id="Camada_1" xmlns="http://www.w3.org/2000/svg" xmlns:xlink="http://www.w3.org/1999/xlink" x="0px" y="0px"
	 viewBox="0 0 465 493" style="enable-background:new 0 0 465 493;" xml:space="preserve">
<style type="text/css">
	.st0{fill:#FFFFFF;}
	.st1{fill:#CFEBF7;stroke:#4776C7;stroke-width:6.9636;stroke-linejoin:round;stroke-miterlimit:10;}
	.st2{fill:#4776C7;}
	.st3{fill:#F4FBFF;}
	.st4{fill:#FFFFFF;stroke:#4776C7;stroke-width:4.6511;stroke-miterlimit:10;}
	.st5{fill:#4776C7;stroke:#4776C7;stroke-width:4.7017;stroke-linecap:round;stroke-linejoin:round;stroke-miterlimit:10;}
	.st6{fill:#FFFFFF;stroke:#4776C7;stroke-width:4.6511;stroke-linecap:round;stroke-linejoin:round;stroke-miterlimit:10;}
	.st7{fill:url(#SVGID_1_);stroke:#4776C7;stroke-width:4.6511;stroke-linecap:round;stroke-linejoin:round;stroke-miterlimit:10;}
	.st8{opacity:0.5;fill:none;stroke:#F4FBFF;stroke-width:4.7017;stroke-miterlimit:10;}
	.st9{opacity:0.5;fill:none;stroke:#F4FBFF;stroke-width:4.6511;stroke-miterlimit:10;}
	.st10{fill:none;stroke:#4776C7;stroke-width:4.7017;stroke-linecap:round;stroke-linejoin:round;stroke-miterlimit:10;}
	.st11{fill:none;stroke:#4776C7;stroke-width:4.7017;stroke-miterlimit:10;}
	.st12{fill:#88BBFC;stroke:#4776C7;stroke-width:4.7017;stroke-miterlimit:10;}
	.st13{fill:none;stroke:#4776C7;stroke-width:4.6511;stroke-miterlimit:10;}
	.st14{fill:url(#SVGID_2_);stroke:#4776C7;stroke-width:4.6511;stroke-linecap:round;stroke-linejoin:round;stroke-miterlimit:10;}
	.st15{fill:#88BBFC;stroke:#4776C7;stroke-width:4.6511;stroke-miterlimit:10;}
	.st16{fill:#FFFFFF;stroke:#4776C7;stroke-width:4.6511;stroke-linejoin:round;stroke-miterlimit:10;}
	.st17{fill:none;stroke:#4776C7;stroke-width:4.6511;stroke-linecap:round;stroke-linejoin:round;stroke-miterlimit:10;}
	.st18{fill:url(#);stroke:#4776C7;stroke-width:4.6511;stroke-linecap:round;stroke-linejoin:round;stroke-miterlimit:10;}
	.st19{fill:#4370FA;stroke:#4776C7;stroke-width:4.7709;stroke-linecap:round;stroke-linejoin:round;stroke-miterlimit:10;}
	.st20{fill:#FFFFFF;stroke:#4776C7;stroke-width:4.4784;stroke-linecap:round;stroke-linejoin:round;stroke-miterlimit:10;}
	.st21{fill:#86EBC0;stroke:#4776C7;stroke-width:4.4784;stroke-linecap:round;stroke-linejoin:round;stroke-miterlimit:10;}
	.st22{fill:none;stroke:#4776C7;stroke-width:4.3095;stroke-linecap:round;stroke-miterlimit:10;}
	.st23{fill:none;stroke:#4776C7;stroke-width:4.2808;stroke-miterlimit:10;}
	.st24{fill:#CFEBF7;stroke:#4776C7;stroke-width:4.7017;stroke-linecap:round;stroke-linejoin:round;stroke-miterlimit:10;}
	.st25{fill:#CFEBF7;stroke:#4776C7;stroke-width:4.6511;stroke-linecap:round;stroke-linejoin:round;stroke-miterlimit:10;}
	.st26{fill:#B4DDFD;stroke:#4776C7;stroke-width:4.6511;stroke-miterlimit:10;}
	.st27{fill:url(#SVGID_3_);stroke:#4776C7;stroke-width:4.6511;stroke-linecap:round;stroke-linejoin:round;stroke-miterlimit:10;}
	.st28{fill:url(#SVGID_4_);stroke:#4776C7;stroke-width:4.7017;stroke-linecap:round;stroke-linejoin:round;stroke-miterlimit:10;}
	.st29{fill:url(#SVGID_5_);stroke:#4776C7;stroke-width:4.7017;stroke-linecap:round;stroke-linejoin:round;stroke-miterlimit:10;}
	.st30{fill:#F4FBFF;stroke:#4776C7;stroke-width:4.6511;stroke-linecap:round;stroke-linejoin:round;stroke-miterlimit:10;}
	.st31{fill:url(#SVGID_6_);stroke:#4776C7;stroke-width:4.6511;stroke-linecap:round;stroke-linejoin:round;stroke-miterlimit:10;}
	.st32{fill:url(#SVGID_7_);stroke:#4776C7;stroke-width:4.6511;stroke-linecap:round;stroke-linejoin:round;stroke-miterlimit:10;}
	.st33{fill:#B4DDFD;stroke:#4776C7;stroke-width:4.6511;stroke-linecap:round;stroke-linejoin:round;stroke-miterlimit:10;}
	.st34{fill:#B4DDFD;stroke:#4776C7;stroke-width:4.6511;stroke-linejoin:round;stroke-miterlimit:10;}
	.st35{fill:none;stroke:#4776C7;stroke-width:4.0017;stroke-linecap:round;stroke-miterlimit:10;}
	.st36{fill:none;stroke:#4776C7;stroke-width:3.9751;stroke-miterlimit:10;}
	.st37{fill:#86EBC0;stroke:#4776C7;stroke-width:7.3697;stroke-linecap:round;stroke-linejoin:round;stroke-miterlimit:10;}
	.st38{fill:#FFFFFF;stroke:#4776C7;stroke-width:7.3697;stroke-linecap:round;stroke-linejoin:round;stroke-miterlimit:10;}
	.st39{fill:none;stroke:#4776C7;stroke-width:6.8007;stroke-linecap:round;stroke-miterlimit:10;}
	.st40{fill:none;stroke:#4776C7;stroke-width:6.7555;stroke-miterlimit:10;}
	.st41{fill:#CFEBF7;stroke:#4776C7;stroke-width:6.9636;stroke-linecap:round;stroke-linejoin:round;stroke-miterlimit:10;}
	.st42{fill:#CFEBF7;stroke:#4776C7;stroke-width:7.3697;stroke-linecap:round;stroke-linejoin:round;stroke-miterlimit:10;}
	.st43{fill:#CFEBF7;stroke:#4776C7;stroke-width:7.3697;stroke-miterlimit:10;}
	.st44{fill:#FFFFFF;stroke:#4776C7;stroke-width:10.8322;stroke-linecap:round;stroke-linejoin:round;stroke-miterlimit:10;}
	.st45{fill:#4370FA;stroke:#4776C7;stroke-width:7.3697;stroke-linecap:round;stroke-linejoin:round;stroke-miterlimit:10;}
	.st46{fill:#F4FBFF;stroke:#4776C7;stroke-width:7.3697;stroke-linecap:round;stroke-linejoin:round;stroke-miterlimit:10;}
	.st47{fill:url(#SVGID_8_);stroke:#4776C7;stroke-width:7.3697;stroke-linecap:round;stroke-linejoin:round;stroke-miterlimit:10;}
	.st48{opacity:0.5;fill:none;stroke:#F4FBFF;stroke-width:6.9636;stroke-miterlimit:10;}
	.st49{opacity:0.5;fill:none;stroke:#F4FBFF;stroke-width:7.3697;stroke-miterlimit:10;}
	.st50{fill:none;stroke:#4776C7;stroke-width:6.9636;stroke-linecap:round;stroke-linejoin:round;stroke-miterlimit:10;}
	.st51{fill:none;stroke:#4776C7;stroke-width:6.9636;stroke-miterlimit:10;}
	.st52{fill:#88BBFC;stroke:#4776C7;stroke-width:6.9636;stroke-miterlimit:10;}
	.st53{fill:none;stroke:#4776C7;stroke-width:7.3697;stroke-miterlimit:10;}
	.st54{fill:url(#SVGID_9_);stroke:#4776C7;stroke-width:7.3697;stroke-linecap:round;stroke-linejoin:round;stroke-miterlimit:10;}
	.st55{fill:#88BBFC;stroke:#4776C7;stroke-width:7.3697;stroke-miterlimit:10;}
	.st56{fill:url(#SVGID_10_);stroke:#4776C7;stroke-width:7.654;stroke-linecap:round;stroke-linejoin:round;stroke-miterlimit:10;}
	.st57{fill:url(#SVGID_11_);stroke:#4776C7;stroke-width:7.7373;stroke-linecap:round;stroke-linejoin:round;stroke-miterlimit:10;}
	.st58{fill:url(#SVGID_12_);stroke:#4776C7;stroke-width:7.7373;stroke-linecap:round;stroke-linejoin:round;stroke-miterlimit:10;}
	.st59{fill:#FFFFFF;stroke:#4776C7;stroke-width:6.9636;stroke-linejoin:round;stroke-miterlimit:10;}
	.st60{fill:url(#SVGID_13_);stroke:#4776C7;stroke-width:7.3697;stroke-linecap:round;stroke-linejoin:round;stroke-miterlimit:10;}
	.st61{fill:url(#SVGID_14_);stroke:#4776C7;stroke-width:7.3697;stroke-linecap:round;stroke-linejoin:round;stroke-miterlimit:10;}
	.st62{fill:url(#SVGID_15_);stroke:#4776C7;stroke-width:7.654;stroke-linecap:round;stroke-linejoin:round;stroke-miterlimit:10;}
	.st63{fill:url(#SVGID_16_);stroke:#4776C7;stroke-width:7.7373;stroke-linecap:round;stroke-linejoin:round;stroke-miterlimit:10;}
	.st64{fill:url(#SVGID_17_);stroke:#4776C7;stroke-width:7.7373;stroke-linecap:round;stroke-linejoin:round;stroke-miterlimit:10;}
	.st65{fill:url(#SVGID_18_);stroke:#4776C7;stroke-width:7.3697;stroke-linecap:round;stroke-linejoin:round;stroke-miterlimit:10;}
	.st66{fill:url(#SVGID_19_);stroke:#4776C7;stroke-width:7.3697;stroke-linecap:round;stroke-linejoin:round;stroke-miterlimit:10;}
	.st67{fill:url(#SVGID_20_);stroke:#4776C7;stroke-width:7.654;stroke-linecap:round;stroke-linejoin:round;stroke-miterlimit:10;}
	.st68{fill:url(#SVGID_21_);stroke:#4776C7;stroke-width:7.7373;stroke-linecap:round;stroke-linejoin:round;stroke-miterlimit:10;}
	.st69{fill:url(#SVGID_22_);stroke:#4776C7;stroke-width:7.7373;stroke-linecap:round;stroke-linejoin:round;stroke-miterlimit:10;}
	.st70{fill:url(#SVGID_23_);stroke:#4776C7;stroke-width:7.3697;stroke-linecap:round;stroke-linejoin:round;stroke-miterlimit:10;}
	.st71{fill:url(#SVGID_24_);stroke:#4776C7;stroke-width:7.3697;stroke-linecap:round;stroke-linejoin:round;stroke-miterlimit:10;}
	.st72{fill:url(#SVGID_25_);stroke:#4776C7;stroke-width:7.654;stroke-linecap:round;stroke-linejoin:round;stroke-miterlimit:10;}
	.st73{fill:url(#SVGID_26_);stroke:#4776C7;stroke-width:7.7373;stroke-linecap:round;stroke-linejoin:round;stroke-miterlimit:10;}
	.st74{fill:url(#SVGID_27_);stroke:#4776C7;stroke-width:7.7373;stroke-linecap:round;stroke-linejoin:round;stroke-miterlimit:10;}
	.st75{fill:url(#SVGID_28_);stroke:#4776C7;stroke-width:7.3697;stroke-linecap:round;stroke-linejoin:round;stroke-miterlimit:10;}
	.st76{fill:url(#SVGID_29_);stroke:#4776C7;stroke-width:7.3697;stroke-linecap:round;stroke-linejoin:round;stroke-miterlimit:10;}
	.st77{fill:url(#SVGID_30_);stroke:#4776C7;stroke-width:7.654;stroke-linecap:round;stroke-linejoin:round;stroke-miterlimit:10;}
	.st78{fill:url(#SVGID_31_);stroke:#4776C7;stroke-width:7.7373;stroke-linecap:round;stroke-linejoin:round;stroke-miterlimit:10;}
	.st79{fill:url(#SVGID_32_);stroke:#4776C7;stroke-width:7.7373;stroke-linecap:round;stroke-linejoin:round;stroke-miterlimit:10;}
	.st80{fill:none;stroke:#4776C7;stroke-width:4.1326;stroke-linecap:round;stroke-miterlimit:10;}
	.st81{fill:none;stroke:#4776C7;stroke-width:4.1052;stroke-miterlimit:10;}
	.st82{fill:#88BBFC;stroke:#4776C7;stroke-width:4.2316;stroke-linejoin:round;stroke-miterlimit:10;}
	.st83{fill:#CFEBF7;stroke:#4776C7;stroke-width:4.2316;stroke-linecap:round;stroke-linejoin:round;stroke-miterlimit:10;}
	.st84{fill:#CFEBF7;stroke:#4776C7;stroke-width:4.4784;stroke-linecap:round;stroke-linejoin:round;stroke-miterlimit:10;}
	.st85{fill:#88BBFC;stroke:#4776C7;stroke-width:4.4784;stroke-miterlimit:10;}
	.st86{fill:#FFFFFF;stroke:#4776C7;stroke-width:7.2274;stroke-linecap:round;stroke-linejoin:round;stroke-miterlimit:10;}
	.st87{fill:#4370FA;stroke:#4776C7;stroke-width:4.4784;stroke-linecap:round;stroke-linejoin:round;stroke-miterlimit:10;}
	.st88{fill:#F4FBFF;stroke:#4776C7;stroke-width:4.4784;stroke-linecap:round;stroke-linejoin:round;stroke-miterlimit:10;}
	.st89{fill:url(#SVGID_33_);stroke:#4776C7;stroke-width:4.4784;stroke-linecap:round;stroke-linejoin:round;stroke-miterlimit:10;}
	.st90{fill:#88BBFC;stroke:#4776C7;stroke-width:4.4784;stroke-linecap:round;stroke-linejoin:round;stroke-miterlimit:10;}
	.st91{opacity:0.5;fill:none;stroke:#F4FBFF;stroke-width:4.2316;stroke-miterlimit:10;}
	.st92{opacity:0.5;fill:none;stroke:#F4FBFF;stroke-width:4.4784;stroke-miterlimit:10;}
	.st93{fill:none;stroke:#4776C7;stroke-width:4.2316;stroke-linecap:round;stroke-linejoin:round;stroke-miterlimit:10;}
	.st94{fill:none;stroke:#4776C7;stroke-width:4.2316;stroke-miterlimit:10;}
	.st95{fill:#88BBFC;stroke:#4776C7;stroke-width:4.2316;stroke-miterlimit:10;}
	.st96{fill:none;stroke:#4776C7;stroke-width:4.4784;stroke-miterlimit:10;}
	.st97{fill:url(#SVGID_34_);stroke:#4776C7;stroke-width:4.4784;stroke-linecap:round;stroke-linejoin:round;stroke-miterlimit:10;}
	.st98{enable-background:new    ;}
	.st99{fill:#B3B3B3;}
	.st100{clip-path:url(#SVGID_36_);enable-background:new    ;}
	.st101{fill:#B8B8B8;}
	.st102{fill:#BDBDBD;}
	.st103{fill:#C2C2C2;}
	.st104{fill:#C7C7C7;}
	.st105{fill:#CCCCCC;}
	.st106{fill:#D1D1D1;}
	.st107{fill:#D6D6D6;}
	.st108{fill:#DBDBDB;}
	.st109{fill:#E0E0E0;}
	.st110{fill:#ADADAD;}
	.st111{fill:#A8A8A8;}
	.st112{fill:#A3A3A3;}
	.st113{fill:#9E9E9E;}
	.st114{fill:#999999;}
	.st115{fill:#949494;}
	.st116{fill:#8F8F8F;}
	.st117{fill:#8A8A8A;}
	.st118{fill:#858585;}
	.st119{fill:#B2B2B2;}
	.st120{clip-path:url(#SVGID_38_);enable-background:new    ;}
	.st121{fill:#B5B5B5;}
	.st122{clip-path:url(#SVGID_40_);enable-background:new    ;}
	.st123{fill:none;stroke:#98B3E0;stroke-width:0.8916;stroke-linecap:round;stroke-linejoin:round;stroke-miterlimit:10;}
	.st124{fill:#5D9B7A;stroke:#4776C7;stroke-width:5.7412;stroke-linecap:round;stroke-linejoin:round;stroke-miterlimit:10;}
	.st125{fill:#6DB591;stroke:#4776C7;stroke-width:5.7412;stroke-linecap:round;stroke-linejoin:round;stroke-miterlimit:10;}
	.st126{fill:#68AF8D;stroke:#4776C7;stroke-width:5.7412;stroke-linecap:round;stroke-linejoin:round;stroke-miterlimit:10;}
	.st127{fill:#86EBC0;stroke:#4776C7;stroke-width:5.7412;stroke-linecap:round;stroke-linejoin:round;stroke-miterlimit:10;}
	.st128{fill:#7CCEA5;stroke:#4776C7;stroke-width:5.7412;stroke-linecap:round;stroke-linejoin:round;stroke-miterlimit:10;}
	.st129{fill:url(#SVGID_41_);stroke:#4776C7;stroke-width:7.654;stroke-linecap:round;stroke-linejoin:round;stroke-miterlimit:10;}
	
		.st130{fill:url(#SVGID_42_);stroke:#4776C7;stroke-width:7.7373;stroke-linecap:round;stroke-linejoin:round;stroke-miterlimit:10;}
	
		.st131{fill:url(#SVGID_43_);stroke:#4776C7;stroke-width:7.7373;stroke-linecap:round;stroke-linejoin:round;stroke-miterlimit:10;}
</style>
<g>
	<g>
		<path class="st124" d="M232.8,202.6c24,24.8,50.5,1.1,51.3,1c0,0,0,0,0,0c-0.4-0.3-3.8-12.8-3.8-12.8
			c-30.6,6.6-44.9-19.2-44.8-19.2C225,183.7,232.8,202.6,232.8,202.6z"/>
		<path class="st125" d="M286,207.1c-30.2,31-53.9,6.2-59.1,3.8c1.7-2.6,3.4-5.3,5.1-7.9l0.7-0.4c24,24.8,50.5,1.1,51.3,1
			c0,0,0,0,0,0L286,207.1z"/>
		<path class="st126" d="M226.7,209.9c-1.6-6.7-12.4-40.5,9.1-37.9l-0.3-0.5c-10.5,12.2-2.8,31.1-2.8,31.1L232,203
			c-1.7,2.6-3.4,5.3-5.1,7.9L226.7,209.9z"/>
	</g>
	<g>
		<g>
			<g>
				<g>
					<g>
						<path class="st3" d="M409.7,312.9c0,0-0.3,1.9-1.2,4.5c-0.9,2.6-2.4,5.8-4.6,8.5c-2.2,2.8-5.1,5.1-8.5,6.1
							c-3.4,1-7.3,0.6-11.5-1.8c-4.2-2.4-6.7-5.2-8.2-8c-1.6-2.8-2.2-5.6-2.4-8c-0.2-2.5-0.1-4.6,0-6.1c0.2-1.5,0.4-2.3,0.4-2.3"/>
						<path class="st2" d="M370.3,304.9C370.3,304.6,370.3,304.9,370.3,304.9l6.7,1.3c0,0-0.1,0.5-0.2,1.3c-0.1,0.8-0.3,2-0.4,3.4
							c-0.2,2.8-0.3,6.5,1.2,9.8c1.3,3,3.9,5.1,7.7,7c3.8,1.9,6.9,3,10.3,1.4c3.7-1.7,6.6-5.7,8.4-9.6c1.8-3.9,2.4-7.5,2.4-7.5
							l6.7,1.3c-0.1,0.4-0.9,5.2-3.4,10.2c-2.5,5-6.6,10.1-12,12.5c-2.8,1.2-5.6,1.7-8.4,1.3c-1.4-0.2-2.7-0.7-3.9-1.4
							c-0.6-0.3-1.3-0.7-1.9-1.2c-0.6-0.5-1.2-1-1.8-1.4c-0.6-0.5-1.2-0.9-1.8-1.3c-0.6-0.4-1-0.8-1.5-1.3c-1-0.9-1.9-1.9-2.8-2.8
							c-1.8-1.8-3.2-3.6-4.2-5.8c-1.7-3.9-1.8-7.9-1.7-11C369.8,307.7,370.2,305.6,370.3,304.9z"/>
					</g>
				</g>
				<g>
					<path class="st3" d="M407.9,271.9c2.1,6.5,3.2,13.4,3.6,20.2c0.1,1.7,0.1,3.4,0.1,5.1l-0.3,5.1c-0.1,0.8-0.1,1.7-0.2,2.5
						l-0.3,2.5c-0.2,1.7-0.5,3.3-0.7,5l-36.8-7c1.3-7.6,1.1-15.2-1.2-22.2L407.9,271.9z"/>
					<path class="st39" d="M374.9,298c0.7-1.3,1.7-2.4,3.1-3.5c1.4-1.1,3.2-2.2,4.9-3.1c3.6-1.9,7.9-3.6,11.4-4.1
						c2.9-0.4,7.2,0.3,10.3,1.4c1,0.6,2.3,1.7,3.3,2.8c1,1,1.8,1.9,1.8,1.9"/>
					<path class="st40" d="M373.6,305.4c1.3-7.7,1.1-15.3-1.2-22.4"/>
					<path class="st40" d="M409.8,312.3c0.3-1.7,0.5-3.3,0.7-5l0.3-2.5c0.1-0.8,0.1-1.7,0.2-2.5l0.3-5.1c0-1.7-0.1-3.4-0.1-5.1
						c-0.4-6.8-1.5-13.7-3.6-20.1"/>
				</g>
				<g>
					<path class="st3" d="M387.5,237.7c4.5,4.8,8.6,10,12,15.7c3.4,5.7,6.3,12,8.4,18.5l-35.7,11.2c-1.1-3.5-2.7-7-4.7-10.3
						c-2-3.3-4.5-6.5-7.2-9.4L387.5,237.7z"/>
					<path class="st39" d="M370.1,276c0-1.4,0.3-3,1-4.6c0.7-1.7,1.6-3.4,2.8-5.1c2.3-3.5,5.3-6.9,8.2-8.9c2.4-1.7,6.5-3.1,9.7-3.6
						c1.1,0.1,2.8,0.5,4.2,0.9c1.4,0.4,2.5,0.8,2.5,0.8"/>
					<path class="st40" d="M372.4,283c-1.1-3.6-2.7-7-4.7-10.4c-2-3.3-4.5-6.5-7.3-9.5"/>
					<path class="st40" d="M407.6,272c-2.1-6.5-4.9-12.7-8.3-18.4c-3.5-5.7-7.5-10.9-12-15.7"/>
				</g>
				<g>
					<path class="st3" d="M359.1,215.4c4.8,3.1,9.4,6.3,13.9,9.6l1.7,1.2c0.6,0.4,1.3,1,1.9,1.5l1.9,1.5l1.9,1.6l1.8,1.6l1.8,1.7
						c1.2,1.1,2.4,2.3,3.5,3.5l-27.2,25.7c-0.7-0.8-1.4-1.4-2.1-2.1l-1.1-1l-1.1-1l-1.1-1l-1.2-0.9c-0.4-0.3-0.7-0.6-1.2-1l-1.5-1.1
						c-4-2.9-8.1-5.8-12.1-8.4L359.1,215.4z"/>
					<path class="st39" d="M355,257.5c-1.2-2.5-1.7-6.8-0.9-10.9c0.7-4.2,2.5-8.4,4.5-11.3c1.7-2.4,5.1-5.1,7.8-6.8
						c2-0.7,6.3-1.3,6.3-1.3"/>
					<path class="st40" d="M360.5,263.2c-0.7-0.8-1.4-1.5-2.1-2.2l-1.1-1.1l-1.1-1l-1.1-1l-1.2-0.9c-0.4-0.3-0.7-0.6-1.2-1L351,255
						c-4-3-8.1-5.8-12.2-8.4"/>
					<path class="st40" d="M387.3,237.9c-1.1-1.2-2.3-2.3-3.4-3.5l-1.8-1.7l-1.8-1.6l-1.9-1.6l-1.9-1.5c-0.6-0.5-1.3-1.1-1.9-1.5
						l-1.7-1.2c-4.5-3.3-9.1-6.5-13.9-9.6"/>
				</g>
				<g>
					<path class="st3" d="M329.4,198.8c4.9,2.4,10,5,15,7.7c2.5,1.4,5,2.8,7.4,4.3c1.2,0.7,2.5,1.5,3.7,2.2l3.6,2.3l-20.4,31.4
						c-8.2-5.3-16.5-9.9-25.6-14.3L329.4,198.8z"/>
					<path class="st39" d="M331.1,241.2c-2.2-2.6-2.9-6.7-2.7-10.9c0.2-4.2,1.3-8.6,3-11.7c1.4-2.6,4.4-5.7,6.8-7.7
						c1-0.5,2.5-1,3.8-1.4c1.3-0.4,2.3-0.6,2.3-0.6"/>
					<path class="st40" d="M338.9,246.6c-8.2-5.3-16.5-9.9-25.7-14.3"/>
					<path class="st40" d="M358.9,215.7l-3.6-2.3c-1.2-0.8-2.4-1.5-3.7-2.2c-2.4-1.5-4.9-2.9-7.4-4.3c-5-2.8-10.1-5.4-15-7.7"/>
				</g>
				<g>
					<path class="st3" d="M301.3,185.2c9,4.7,18.2,8.8,28.1,13.6l-16.4,33.7c-9.1-4.4-19.1-9-28.9-14L301.3,185.2z"/>
					<path class="st39" d="M304.3,227.5c-2.7-2.6-3.9-6.7-4-11c-0.1-4.3,0.9-8.7,2.5-11.9c1.3-2.7,4.1-5.9,6.5-8
						c1.8-1.1,5.7-2.5,5.7-2.5"/>
					<path class="st40" d="M313.2,232.2c-9.1-4.4-19.1-9-28.9-14"/>
					<path class="st40" d="M329.3,199.1c-9.9-4.8-19.1-9-28.1-13.6"/>
				</g>
				<g>
					<g>
						<path class="st3" d="M284,218.1c0,0-1.3-0.6-3.2-1.8c-1.8-1.2-4.2-3-6.2-5.4c-4.1-4.7-6.7-11.6-1.8-19.8
							c4.9-8.3,11.9-9.5,17.7-8.9c2.9,0.4,5.5,1.1,7.3,1.9c1.9,0.7,3,1.4,3,1.4"/>
						<path class="st2" d="M302.5,182.3C303,182.6,302.5,182.4,302.5,182.3l-3.1,6c0,0-0.6-0.3-1.6-0.8c-1-0.4-2.4-1-4-1.5
							c-3.2-1-7.3-1.8-10.9-0.8c-3.4,0.9-5.5,3.4-7.6,7.1c-2.1,3.7-3.4,6.7-2.3,10.1c1.1,3.6,4.3,6.8,7.2,9c1.5,1.1,2.8,2,3.8,2.6
							c1,0.6,1.7,0.9,1.7,0.9l-3.1,6c-0.3-0.1-3.5-1.7-7-4.5c-3.5-2.8-7.4-6.9-8.9-12.1c-1.6-5.3-0.2-10.3,2.9-15.5
							c3.1-5.2,6.9-8.9,12-10.2c4.5-1.2,9.2-0.6,13.1,0.5C298.4,180.3,301.4,181.8,302.5,182.3z"/>
					</g>
				</g>
			</g>
		</g>
	</g>
	<g>
		<path class="st127" d="M229.1,156.4c0,0-14.3,10.6-12.7,34c0,0,30.4-39.5,66.5,11.1c0,0,0,0,0,0c-0.1-0.2-1.2-11.5,7.8-21.5
			C263.1,136,229.1,156.4,229.1,156.4z"/>
		<path class="st128" d="M217.1,193.1c3.5,1.8,5.5,3.2,9,5c0.5,0.3,1.8-0.9,2.3-1.5c14.8-17.6,38.5-5.2,54.6,7.5l0-2.7c0,0,0,0,0,0
			c-36.1-50.5-66.5-11.1-66.5-11.1L217.1,193.1z"/>
	</g>
</g>
</svg>
